<?xml version="1.0" encoding="utf-8"?>
<!-- Generated by IcoMoon.io -->
<!DOCTYPE svg PUBLIC "-//W3C//DTD SVG 1.1//EN" "http://www.w3.org/Graphics/SVG/1.1/DTD/svg11.dtd">
<svg version="1.1" xmlns="http://www.w3.org/2000/svg" xmlns:xlink="http://www.w3.org/1999/xlink" width="32" height="32" viewBox="0 0 32 32">
	<path d="M14.264 32.638c-8.905-1.053-14.896-8.772-14.173-17.366 1.011-8.269 7.324-14.017 14.957-14.403 11.12-0.247 16.373 8.295 16.867 14.403 0.947 13.275-11.153 18.55-17.651 17.366zM10.65 25.4c1.522-1.417 2.571-2.672 4.576-4.502 0.257-0.289 1.288-0.31 1.69 0.051 1.468 1.391 2.514 2.55 4.423 4.388 0.488 0.398 1.329 0.387 1.682 0.137 0.357-0.252 1.686-1.613 1.841-1.878 0.184-0.316 0.213-0.881-0.161-1.491-1.165-1.174-2.76-2.75-4.491-4.516-0.455-0.61-0.277-1.352 0.066-1.758 1.989-2.001 3.82-3.757 4.502-4.541 0.25-0.533 0.204-1.080 0.051-1.417-0.158-0.347-1.549-1.724-1.906-1.887-0.311-0.142-0.892-0.255-1.445 0.104-1.684 1.616-2.645 2.596-4.483 4.42-0.703 0.537-1.372 0.424-1.951-0.010-1.708-1.703-2.041-2.077-4.379-4.348-0.278-0.293-1.156-0.358-1.449-0.223-0.33 0.152-1.84 1.647-1.984 1.965-0.064 0.141-0.272 0.559 0.006 1.294 2.060 2.211 3.1 3.104 4.562 4.656 0.399 0.432 0.407 1.474 0.010 1.812-1.496 1.555-3.215 3.17-4.479 4.491-0.22 0.481-0.443 0.997-0.059 1.568 0.353 0.526 1.592 1.653 1.709 1.725 0.551 0.329 0.877 0.336 1.67-0.038z"></path>
</svg>
