<?xml version="1.0" encoding="utf-8"?>
<!-- Generated by IcoMoon.io -->
<!DOCTYPE svg PUBLIC "-//W3C//DTD SVG 1.1//EN" "http://www.w3.org/Graphics/SVG/1.1/DTD/svg11.dtd">
<svg version="1.1" xmlns="http://www.w3.org/2000/svg" xmlns:xlink="http://www.w3.org/1999/xlink" width="32" height="32" viewBox="0 0 32 32">
	<path d="M18.279 0.001c0.461-0.015 0.88 0.341 0.977 0.784 0.193 1.026 0.767 4.153 0.868 4.688 0.035 0.228 0.292 0.857 1.161 0.102 1.17-0.792 2.347-1.578 3.515-2.373 0.441-0.354 1.128-0.268 1.486 0.164 0.807 0.813 1.621 1.617 2.429 2.428 0.359 0.348 0.396 0.965 0.104 1.364-0.86 1.265-1.713 2.535-2.572 3.801-0.107 0.155-0.392 0.81 0.339 0.912 1.538 0.284 3.076 0.567 4.613 0.851 0.412 0.084 0.727 0.448 0.802 0.854v3.945c-0.133 0.357-0.406 0.691-0.796 0.771-1.538 0.284-3.078 0.565-4.615 0.852-0.213 0.030-0.871 0.281-0.306 0.97 0.845 1.241 1.68 2.49 2.525 3.73 0.295 0.395 0.274 1.014-0.083 1.364-0.84 0.839-1.681 1.678-2.521 2.517-0.35 0.37-0.978 0.406-1.382 0.104-1.278-0.87-2.565-1.728-3.845-2.595-0.639-0.399-0.83 0.152-0.858 0.341-0.024 0.127-0.742 4.026-0.784 4.234-0.18 0.905-0.233 1.079-0.918 1.221h-3.869c-0.4-0.102-0.758-0.405-0.837-0.823-0.287-1.548-0.571-3.095-0.859-4.642-0.102-0.721-0.745-0.411-0.895-0.305-1.183 0.802-2.373 1.593-3.553 2.399-0.623 0.565-1.329 0.367-1.607 0.095-0.843-0.836-1.681-1.678-2.522-2.515-0.367-0.337-0.417-0.952-0.137-1.357 0.889-1.318 1.786-2.63 2.669-3.953 0.211-0.268 0.057-0.69-0.279-0.751-1.391-0.284-2.918-0.575-4.368-0.797-0.918-0.14-1.099-0.66-1.19-0.873v-3.931c0.081-0.425 0.415-0.794 0.849-0.867 1.393-0.249 3.051-0.593 4.445-0.841 0.533 0 0.863-0.383 0.533-0.806-0.813-1.208-1.631-2.413-2.446-3.62-0.484-0.717-0.561-1.173-0.094-1.649 0.791-0.807 1.601-1.596 2.398-2.398 0.175-0.179 0.79-0.729 1.518-0.196 1.264 0.862 2.537 1.71 3.803 2.569 0.15 0.096 0.73 0.4 0.873-0.3 0.069-0.367 0.596-3.223 0.793-4.284 0-0.927 0.715-1.19 1.049-1.185l3.59-0.002zM16.473 21.162c4.641 0 5.744-4.91 5.709-5.616-0.213-4.328-4.015-5.634-5.709-5.634-3.35 0-5.606 2.593-5.606 5.28 0 0.354-0.018 5.97 5.606 5.97z"></path>
</svg>
