<?xml version="1.0" encoding="utf-8"?>
<!-- Generated by IcoMoon.io -->
<!DOCTYPE svg PUBLIC "-//W3C//DTD SVG 1.1//EN" "http://www.w3.org/Graphics/SVG/1.1/DTD/svg11.dtd">
<svg version="1.1" xmlns="http://www.w3.org/2000/svg" xmlns:xlink="http://www.w3.org/1999/xlink" width="30px" height="33px" viewBox="0 0 30 33">
	<path d="M12.759,18.922 C12.616,18.37 12.613,3.236 12.756,2.687 C13.467,0.133 16.642,0.427 17.318,2.55 L17.318,18.982 C16.507,21.364 13.405,21.251 12.76,18.922 L12.759,18.922 Z M14.991,32.8 C1.129,32.551 -4.193,16.065 5.365,7.509 C8.121,5.457 10.863,9.147 8.328,11.231 C1.573,18.08 6.823,28.089 14.945,28.072 C25.032,27.596 27.282,16.308 21.738,11.318 C19.176,9.412 21.721,5.455 24.574,7.484 C34.99,17.409 27.392,32.866 14.991,32.801 L14.991,32.8 Z"></path>
</svg>
