<?xml version="1.0" encoding="utf-8"?>
<!-- Generated by IcoMoon.io -->
<!DOCTYPE svg PUBLIC "-//W3C//DTD SVG 1.1//EN" "http://www.w3.org/Graphics/SVG/1.1/DTD/svg11.dtd">
<svg version="1.1" xmlns="http://www.w3.org/2000/svg" xmlns:xlink="http://www.w3.org/1999/xlink" width="27px" height="33px" viewBox="0 0 27 33">
    <path d="M12.26436,32.344 C10.25036,32.246 6.52236003,31.021 3.83036003,28.008 C1.89436003,25.842 0.449360027,22.657 0.501360027,19.307 C0.568360027,14.993 2.15436003,12.41 4.29436003,10.061 C7.81936003,6.661 11.16036,6.169 14.52836,6.151 C14.57836,4.268 14.57536,2.384 14.57536,0.5 C17.83236,3.807 19.89836,5.808 23.17736,9.162 C23.16036,9.211 14.62736,17.765 14.59536,17.765 C14.56636,15.658 14.57636,14.051 14.57636,11.781 C8.98736003,11.36 5.97036003,15.787 6.08436003,19.236 C6.20436003,24.985 10.98136,26.813 13.66036,26.884 C19.39236,26.284 21.50536,21.944 21.21536,18.202 L26.75336,18.202 C27.05236,25.411 22.47336,28.938 22.24436,29.187 C18.56036,32.205 14.81636,32.678 12.26536,32.342 L12.26436,32.344 Z"></path>
</svg>
